<?xml version="1.0" encoding="iso-8859-1"?>
<!-- Generator: Adobe Illustrator 19.0.0, SVG Export Plug-In . SVG Version: 6.00 Build 0)  -->
<svg version="1.1" id="Capa_1" xmlns="http://www.w3.org/2000/svg" xmlns:xlink="http://www.w3.org/1999/xlink" x="0px" y="0px"
	 viewBox="0 0 512 512" style="enable-background:new 0 0 512 512;" xml:space="preserve">
<g>
	<g>
		<path d="M493.693,0H18.307C8.196,0,0,8.196,0,18.307v475.385C0,503.804,8.196,512,18.307,512h475.385
			C503.81,512,512,503.81,512,493.693V18.307C512,8.196,503.804,0,493.693,0z M475.385,475.385H36.615V36.615h438.77V475.385z"/>
	</g>
</g>
<g>
	<g>
		<path d="M255.695,90.927H87.876c-10.112,0-18.307,8.196-18.307,18.307v137.306c0,10.106,8.196,18.307,18.307,18.307h167.819
			c10.112,0,18.307-8.196,18.307-18.307V109.235C274.002,99.123,265.807,90.927,255.695,90.927z M237.387,228.234H106.184V127.542
			h131.204V228.234z"/>
	</g>
</g>
<g>
	<g>
		<path d="M411.309,90.927h-85.435c-10.112,0-18.307,8.196-18.307,18.307c0,10.112,8.196,18.307,18.307,18.307h85.435
			c10.118,0,18.307-8.196,18.307-18.307C429.616,99.123,421.421,90.927,411.309,90.927z"/>
	</g>
</g>
<g>
	<g>
		<path d="M411.309,164.157h-85.435c-10.112,0-18.307,8.196-18.307,18.307s8.196,18.307,18.307,18.307h85.435
			c10.118,0,18.307-8.196,18.307-18.307S421.421,164.157,411.309,164.157z"/>
	</g>
</g>
<g>
	<g>
		<path d="M411.309,237.387h-85.435c-10.112,0-18.307,8.202-18.307,18.307s8.196,18.307,18.307,18.307h85.435
			c10.118,0,18.307-8.196,18.307-18.307S421.421,237.387,411.309,237.387z"/>
	</g>
</g>
<g>
	<g>
		<path d="M411.309,310.617H87.876c-10.112,0-18.307,8.196-18.307,18.307c0,10.112,8.196,18.307,18.307,18.307h323.433
			c10.118,0,18.307-8.196,18.307-18.307C429.616,318.813,421.421,310.617,411.309,310.617z"/>
	</g>
</g>
<g>
	<g>
		<path d="M411.309,383.847H87.876c-10.112,0-18.307,8.196-18.307,18.308c0,10.112,8.196,18.307,18.307,18.307h323.433
			c10.118,0,18.307-8.196,18.307-18.307C429.616,392.043,421.421,383.847,411.309,383.847z"/>
	</g>
</g>
<g>
</g>
<g>
</g>
<g>
</g>
<g>
</g>
<g>
</g>
<g>
</g>
<g>
</g>
<g>
</g>
<g>
</g>
<g>
</g>
<g>
</g>
<g>
</g>
<g>
</g>
<g>
</g>
<g>
</g>
</svg>
